<svg width="50" height="50" viewBox="0 0 50 50" fill="none" xmlns="http://www.w3.org/2000/svg">
<path d="M25 47.9167L18.75 41.6667H10.4167C9.27083 41.6667 8.28958 41.2591 7.47292 40.4438C6.65764 39.6272 6.25 38.6459 6.25 37.5001V8.33341C6.25 7.18758 6.65764 6.20633 7.47292 5.38966C8.28958 4.57439 9.27083 4.16675 10.4167 4.16675H39.5833C40.7292 4.16675 41.7104 4.57439 42.5271 5.38966C43.3424 6.20633 43.75 7.18758 43.75 8.33341V37.5001C43.75 38.6459 43.3424 39.6272 42.5271 40.4438C41.7104 41.2591 40.7292 41.6667 39.5833 41.6667H31.25L25 47.9167ZM25 25.0001C27.0139 25.0001 28.7326 24.2883 30.1562 22.8647C31.5799 21.4411 32.2917 19.7223 32.2917 17.7084C32.2917 15.6945 31.5799 13.9758 30.1562 12.5522C28.7326 11.1286 27.0139 10.4167 25 10.4167C22.9861 10.4167 21.2674 11.1286 19.8437 12.5522C18.4201 13.9758 17.7083 15.6945 17.7083 17.7084C17.7083 19.7223 18.4201 21.4411 19.8437 22.8647C21.2674 24.2883 22.9861 25.0001 25 25.0001ZM25 42.0834L29.5833 37.5001H39.5833V35.1042C37.7083 33.264 35.5299 31.814 33.0479 30.7542C30.5646 29.6959 27.8819 29.1667 25 29.1667C22.1181 29.1667 19.4361 29.6959 16.9542 30.7542C14.4708 31.814 12.2917 33.264 10.4167 35.1042V37.5001H20.4167L25 42.0834Z" fill="black"/>
</svg>
