<svg width="23" height="33" fill="none" xmlns="http://www.w3.org/2000/svg"><path d="M11.5 15.573A4.16 4.16 0 0 1 8.596 14.4a3.957 3.957 0 0 1-1.203-2.833c0-1.063.433-2.082 1.203-2.833A4.16 4.16 0 0 1 11.5 7.561a4.16 4.16 0 0 1 2.904 1.173 3.957 3.957 0 0 1 1.203 2.833c0 .526-.106 1.047-.313 1.533a4.001 4.001 0 0 1-.89 1.3 4.114 4.114 0 0 1-1.332.868 4.195 4.195 0 0 1-1.572.305zM11.5.35c-3.05 0-5.975 1.182-8.132 3.286A11.08 11.08 0 0 0 0 11.567C0 19.98 11.5 32.4 11.5 32.4S23 19.98 23 11.567a11.08 11.08 0 0 0-3.368-7.932A11.648 11.648 0 0 0 11.5.349z" fill="#000"/></svg>