<svg width="33" height="30" fill="none" xmlns="http://www.w3.org/2000/svg"><path d="m32.565 7.35.389 1.857c.059.281.059.56.01.823.044.187.048.382.011.57a1.307 1.307 0 0 1-.223.518c-.11.152-.251.275-.412.36a1.113 1.113 0 0 1-.519.128h-2.658L27.416 9.11v-.003a3.058 3.058 0 0 0-1.061-.95 2.836 2.836 0 0 0-1.346-.34h-.26V5.684c0-.912-.692-1.654-1.543-1.654H21.58c-.851 0-1.544.742-1.544 1.654v2.122h-7.072V5.683c0-.912-.693-1.654-1.544-1.654H9.794c-.85 0-1.544.742-1.544 1.654v2.135h-.26c-.951 0-1.841.48-2.415 1.3l-1.74 2.488H1.18c-.18 0-.357-.044-.519-.128a1.2 1.2 0 0 1-.412-.36 1.306 1.306 0 0 1-.223-.518 1.351 1.351 0 0 1 .012-.57 2.086 2.086 0 0 1 .01-.823L.422 7.35c.42-2.016 1.469-3.818 2.973-5.11C4.899.946 6.769.241 8.696.24h15.607c1.927 0 3.796.705 5.298 1.998 1.502 1.293 2.548 3.096 2.964 5.112z" fill="#000"/><path d="m26.47 9.863 4.314 6.163c1.438 2.05 2.216 4.545 2.216 7.11v4.18c0 1.086-.825 1.97-1.839 1.97H1.84C.825 29.286 0 28.402 0 27.316v-4.18c0-2.563.778-5.064 2.216-7.11l4.302-6.15c.353-.505.895-.796 1.473-.796h1.072c.2 0 .366-.177.366-.391V5.683c0-.215.165-.391.365-.391h1.626c.2 0 .366.176.366.391v3.006c0 .214.165.391.365.391h8.698c.2 0 .365-.177.365-.391V5.683c0-.215.165-.391.366-.391h1.626c.2 0 .365.176.365.391v3.006c0 .214.165.391.366.391h1.072c.578 0 1.12.29 1.462.783zm-12.683 5.532c.2 0 .366-.177.355-.394v-1.738a.41.41 0 0 0-.108-.278.357.357 0 0 0-.259-.116h-1.623c-.2 0-.366.177-.366.394V15c0 .216.165.394.38.394h1.621zm3.536 0a.354.354 0 0 0 .257-.115.385.385 0 0 0 .099-.28v-1.737a.411.411 0 0 0-.109-.278.358.358 0 0 0-.26-.116h-1.62a.357.357 0 0 0-.26.116.41.41 0 0 0-.109.278V15c0 .216.165.394.38.394h1.622zm1.912 0h1.623a.354.354 0 0 0 .257-.115.384.384 0 0 0 .1-.28v-1.737a.411.411 0 0 0-.11-.278.358.358 0 0 0-.259-.116h-1.622c-.2 0-.367.177-.367.394V15c0 .216.165.394.38.394h-.002zm-5.448 3.788c.2 0 .366-.177.355-.394v-1.738a.41.41 0 0 0-.108-.277.357.357 0 0 0-.259-.117h-1.623c-.2 0-.366.177-.366.395v1.737c0 .216.165.394.38.394h1.621zm1.913 0h1.623a.353.353 0 0 0 .257-.115.383.383 0 0 0 .099-.279v-1.738a.411.411 0 0 0-.109-.277.359.359 0 0 0-.26-.117h-1.62a.357.357 0 0 0-.26.116.41.41 0 0 0-.109.279v1.737c0 .216.165.394.38.394H15.7zm5.158 0a.334.334 0 0 0 .257-.115.383.383 0 0 0 .1-.279v-1.738a.411.411 0 0 0-.11-.277.358.358 0 0 0-.259-.117h-1.622c-.2 0-.367.177-.367.395v1.737c0 .216.165.394.38.394h1.621zm-8.694 3.789h1.623c.2 0 .366-.177.355-.394V20.84a.41.41 0 0 0-.108-.278.357.357 0 0 0-.259-.116h-1.623c-.2 0-.366.177-.366.394v1.738c0 .216.165.394.38.394h-.002zm5.159 0a.335.335 0 0 0 .256-.115.383.383 0 0 0 .1-.28V20.84a.411.411 0 0 0-.109-.278.358.358 0 0 0-.26-.116h-1.62a.356.356 0 0 0-.26.116.41.41 0 0 0-.109.278v1.738c0 .216.165.394.38.394h1.622zm1.912 0h1.623a.335.335 0 0 0 .257-.115.383.383 0 0 0 .1-.28V20.84a.411.411 0 0 0-.11-.278.358.358 0 0 0-.259-.116h-1.622c-.2 0-.367.177-.367.394v1.738c0 .216.165.394.38.394h-.002z" fill="#000"/></svg>