<svg width="40" height="40" viewBox="0 0 40 40" fill="none" xmlns="http://www.w3.org/2000/svg">
<g clip-path="url(#clip0_105_1597)">
<path d="M30.1554 37.7775H9.84426C9.41669 37.7674 8.99531 37.6732 8.60418 37.5002C8.21305 37.3272 7.85984 37.0788 7.56473 36.7693C7.26962 36.4597 7.0384 36.0951 6.88428 35.6961C6.73015 35.2972 6.65614 34.8718 6.66648 34.4442V12.4775H8.8887V34.4442C8.87809 34.58 8.89443 34.7165 8.93678 34.846C8.97912 34.9754 9.04663 35.0952 9.13544 35.1985C9.22424 35.3017 9.33258 35.3864 9.45422 35.4476C9.57587 35.5089 9.70842 35.5455 9.84426 35.5553H30.1554C30.2912 35.5455 30.4238 35.5089 30.5454 35.4476C30.667 35.3864 30.7754 35.3017 30.8642 35.1985C30.953 35.0952 31.0205 34.9754 31.0628 34.846C31.1052 34.7165 31.1215 34.58 31.1109 34.4442V12.4775H33.3331V34.4442C33.3435 34.8718 33.2695 35.2972 33.1153 35.6961C32.9612 36.0951 32.73 36.4597 32.4349 36.7693C32.1398 37.0788 31.7866 37.3272 31.3954 37.5002C31.0043 37.6732 30.5829 37.7674 30.1554 37.7775Z" fill="white"/>
<path d="M34.1999 10.0001H5.55545C5.26076 10.0001 4.97815 9.88299 4.76977 9.67462C4.5614 9.46624 4.44434 9.18363 4.44434 8.88894C4.44434 8.59426 4.5614 8.31164 4.76977 8.10327C4.97815 7.8949 5.26076 7.77783 5.55545 7.77783H34.1999C34.4946 7.77783 34.7772 7.8949 34.9856 8.10327C35.1939 8.31164 35.311 8.59426 35.311 8.88894C35.311 9.18363 35.1939 9.46624 34.9856 9.67462C34.7772 9.88299 34.4946 10.0001 34.1999 10.0001Z" fill="white"/>
<path d="M23.3335 14.4443H25.5557V31.111H23.3335V14.4443Z" fill="white"/>
<path d="M14.4443 14.4443H16.6666V31.111H14.4443V14.4443Z" fill="white"/>
<path d="M25.5554 6.51106H23.4443V4.44439H16.5554V6.51106H14.4443V4.44439C14.4436 3.87378 14.6624 3.32475 15.0554 2.91106C15.4485 2.49736 15.9855 2.2507 16.5554 2.22217H23.4443C24.0142 2.2507 24.5513 2.49736 24.9443 2.91106C25.3373 3.32475 25.5562 3.87378 25.5554 4.44439V6.51106Z" fill="white"/>
</g>
<defs>
<clipPath id="clip0_105_1597">
<rect width="40" height="40" fill="white"/>
</clipPath>
</defs>
</svg>
