<svg width="90" height="58" fill="none" xmlns="http://www.w3.org/2000/svg"><path d="M8.063.192C7.495.193 6.926.197 6.36.204c-.563.018-1.136.048-1.695.15A5.4 5.4 0 0 0 .69 3.249 5.569 5.569 0 0 0 .165 4.86a10.19 10.19 0 0 0-.15 1.688A38.25 38.25 0 0 0 0 7.332v43.34c0 .262.007.517.011.775.015.563.049 1.137.15 1.695.102.563.27 1.092.533 1.61a5.385 5.385 0 0 0 2.362 2.362 5.702 5.702 0 0 0 1.613.532c.555.101 1.125.135 1.687.15l.78.011h75.728l.776-.01a11.213 11.213 0 0 0 1.695-.15 5.686 5.686 0 0 0 1.605-.53 5.37 5.37 0 0 0 2.366-2.366 5.58 5.58 0 0 0 .529-1.612c.101-.555.135-1.125.15-1.688.008-.262.011-.517.011-.78L90 49.75V7.329c0-.263-.007-.518-.015-.777a11.234 11.234 0 0 0-.15-1.695 5.422 5.422 0 0 0-4.5-4.503 11.332 11.332 0 0 0-1.695-.15 39.181 39.181 0 0 0-1.699-.012H8.062zm0 1.92h74.782c.248 0 .491.008.739.012.431.015.937.037 1.406.12.409.075.75.187 1.076.352a3.476 3.476 0 0 1 1.526 1.526c.172.34.291.705.353 1.08.083.462.105.968.116 1.403.008.244.011.487.011.739v43.32c0 .243 0 .487-.01.735-.012.43-.034.937-.12 1.406a3.478 3.478 0 0 1-1.876 2.599c-.338.17-.699.29-1.072.352a9.74 9.74 0 0 1-1.399.12l-.75.011H7.147c-.247 0-.498-.007-.735-.01a9.785 9.785 0 0 1-1.406-.12 3.928 3.928 0 0 1-1.08-.353 3.442 3.442 0 0 1-1.522-1.527 3.771 3.771 0 0 1-.353-1.08 9.491 9.491 0 0 1-.12-1.398 35.956 35.956 0 0 1-.007-.74V7.34c0-.243 0-.49.007-.738.015-.427.038-.93.12-1.406.075-.405.188-.746.353-1.076A3.469 3.469 0 0 1 3.93 2.596c.34-.17.702-.288 1.076-.352a9.8 9.8 0 0 1 1.406-.12c.244-.008.492-.008.736-.012h.915zm17.662 13.875c-1.125.06-2.505.747-3.3 1.71-.716.825-1.35 2.175-1.185 3.443 1.268.112 2.531-.634 3.33-1.568.769-.967 1.294-2.26 1.155-3.58v-.005zm8.276 1.575v20.6h3.195v-7.04h4.425c4.043 0 6.881-2.77 6.881-6.795 0-4.012-2.782-6.768-6.78-6.768l-7.72.003zm3.195 2.697h3.683c2.771 0 4.354 1.485 4.354 4.083 0 2.595-1.583 4.095-4.365 4.095h-3.672V20.26zM25.37 21.384c-1.688.037-3.113 1.05-3.938 1.05-.881 0-2.224-.99-3.678-.964a5.423 5.423 0 0 0-4.613 2.801c-1.976 3.405-.521 8.456 1.402 11.231.934 1.373 2.06 2.884 3.54 2.828 1.4-.053 1.95-.908 3.65-.908 1.702 0 2.197.908 3.674.882 1.538-.027 2.502-1.373 3.431-2.75 1.073-1.563 1.512-3.074 1.538-3.153-.026-.03-2.962-1.155-2.989-4.534-.03-2.827 2.306-4.173 2.415-4.256-1.32-1.95-3.375-2.167-4.087-2.224a4.223 4.223 0 0 0-.345-.007v.004zm30.765 1.488c-3.713 0-6.023 2-6.195 4.71h2.913c.27-1.342 1.384-2.197 3.17-2.197 1.882 0 3.01.997 3.01 2.666v1.159l-4.113.24c-3.566.202-5.58 1.815-5.58 4.44 0 2.7 2.055 4.526 4.995 4.526 1.972 0 3.87-1.054 4.74-2.726h.071v2.471H62.1v-10.35c0-3.011-2.325-4.939-5.966-4.939zm7.275.27 5.422 15.034c0 .011-.273.9-.273.926-.47 1.538-1.238 2.142-2.667 2.142-.259 0-.772 0-1.001-.057v2.498c.225.041 1.001.071 1.256.071 3.113 0 4.598-1.17 5.88-4.811l5.625-15.803h-3.255l-3.795 12.222h-.056l-3.799-12.225-3.337.003zm-4.377 8.21v1.184c0 1.954-1.687 3.439-3.84 3.439-1.657 0-2.74-.855-2.74-2.171 0-1.283 1.042-2.1 2.883-2.224l3.697-.229z" fill="#000"/></svg>