<svg width="85" height="56" fill="none" xmlns="http://www.w3.org/2000/svg"><g clip-path="url(#a)"><path d="M15.453 55.722v-3.707c0-1.42-1.02-2.347-2.77-2.347-.875 0-1.823.247-2.479 1.05-.51-.68-1.238-1.05-2.332-1.05-.729 0-1.457.185-2.04.865v-.742H4.3v5.93h1.531v-3.273c0-1.05.656-1.545 1.677-1.545 1.02 0 1.53.556 1.53 1.544v3.275h1.531v-3.275c0-1.05.729-1.544 1.676-1.544 1.021 0 1.531.556 1.531 1.544v3.275h1.677zm22.668-5.93h-2.478V48h-1.53v1.791h-1.386v1.174h1.385v2.718c0 1.36.656 2.162 2.405 2.162.657 0 1.385-.185 1.896-.432l-.438-1.112c-.437.247-.947.309-1.312.309-.729 0-1.02-.37-1.02-.989v-2.656h2.478V49.79zm12.974-.125c-.874 0-1.457.371-1.822.866v-.742h-1.53v5.93h1.53v-3.335c0-.988.51-1.544 1.458-1.544.291 0 .656.062.947.123l.438-1.235c-.292-.062-.73-.062-1.02-.062zm-19.607.618c-.729-.432-1.75-.617-2.843-.617-1.749 0-2.915.741-2.915 1.915 0 .988.875 1.544 2.405 1.73l.73.061c.801.124 1.238.31 1.238.618 0 .432-.583.741-1.603.741s-1.823-.309-2.333-.617l-.729.988c.802.494 1.896.741 2.989.741 2.04 0 3.207-.803 3.207-1.915 0-1.05-.948-1.606-2.406-1.791l-.728-.062c-.657-.062-1.166-.185-1.166-.556 0-.432.51-.68 1.311-.68.875 0 1.75.31 2.187.495l.656-1.05zm40.672-.617c-.874 0-1.458.37-1.822.865v-.742h-1.53v5.93h1.53v-3.335c0-.988.51-1.544 1.458-1.544.291 0 .656.062.947.123l.438-1.235c-.292-.062-.73-.062-1.02-.062zm-19.534 3.089c0 1.791 1.458 3.088 3.717 3.088 1.02 0 1.75-.185 2.478-.68l-.728-1.05c-.584.371-1.167.556-1.823.556-1.239 0-2.113-.74-2.113-1.914 0-1.112.874-1.854 2.113-1.915.656 0 1.24.185 1.822.556l.73-1.05c-.73-.495-1.458-.68-2.479-.68-2.26 0-3.717 1.297-3.717 3.089zm14.14 0V49.79h-1.53v.742c-.51-.556-1.24-.865-2.187-.865-1.968 0-3.498 1.297-3.498 3.089 0 1.791 1.53 3.088 3.498 3.088 1.02 0 1.75-.308 2.187-.864v.74h1.53v-2.964zm-5.612 0c0-1.05.802-1.915 2.114-1.915 1.239 0 2.114.803 2.114 1.915 0 1.05-.875 1.915-2.114 1.915-1.312-.062-2.114-.865-2.114-1.915zm-18.295-3.09c-2.041 0-3.499 1.236-3.499 3.09 0 1.853 1.458 3.088 3.572 3.088 1.02 0 2.04-.247 2.843-.803l-.73-.926c-.583.37-1.312.617-2.04.617-.948 0-1.896-.37-2.114-1.42h5.175v-.495c.073-1.915-1.24-3.15-3.207-3.15zm0 1.113c.947 0 1.604.494 1.75 1.42h-3.645c.145-.802.802-1.42 1.895-1.42zm37.975 1.977v-5.313h-1.53v3.089c-.511-.556-1.24-.865-2.187-.865-1.968 0-3.499 1.297-3.499 3.089 0 1.791 1.53 3.088 3.499 3.088 1.02 0 1.75-.308 2.186-.864v.74h1.531v-2.964zm-5.612 0c0-1.05.801-1.915 2.113-1.915 1.24 0 2.114.803 2.114 1.915 0 1.05-.874 1.915-2.114 1.915-1.312-.062-2.113-.865-2.113-1.915zm-51.169 0V49.79h-1.53v.742c-.51-.556-1.24-.865-2.187-.865-1.968 0-3.499 1.297-3.499 3.089 0 1.791 1.531 3.088 3.499 3.088 1.02 0 1.75-.308 2.187-.864v.74h1.53v-2.964zm-5.685 0c0-1.05.802-1.915 2.114-1.915 1.239 0 2.114.803 2.114 1.915 0 1.05-.875 1.915-2.114 1.915-1.312-.062-2.114-.865-2.114-1.915z" fill="#000"/><path d="M30.978 4.757h22.96v34.965h-22.96V4.757z" fill="#FF5F00"/><path d="M32.436 22.24c0-7.105 3.936-13.406 9.985-17.483C37.975 1.79 32.363 0 26.241 0 11.734 0 0 9.946 0 22.24c0 12.293 11.735 22.239 26.24 22.239 6.123 0 11.735-1.792 16.181-4.757-6.05-4.016-9.985-10.379-9.985-17.483z" fill="#EB001B"/><path d="M84.916 22.24c0 12.293-11.735 22.239-26.24 22.239-6.123 0-11.735-1.792-16.182-4.757 6.123-4.077 9.986-10.379 9.986-17.483 0-7.104-3.936-13.405-9.986-17.482C46.94 1.79 52.553 0 58.676 0c14.505 0 26.24 10.008 26.24 22.24z" fill="#F79E1B"/></g><defs><clipPath id="a"><path fill="#fff" d="M0 0h85v56H0z"/></clipPath></defs></svg>