<svg width="93" height="57" fill="none" xmlns="http://www.w3.org/2000/svg"><g clip-path="url(#a)"><path d="M86.8 57H6.2c-1.644 0-3.221-.6-4.384-1.67C.653 54.263 0 52.813 0 51.3V5.7c0-1.512.653-2.962 1.816-4.03C2.979.6 4.556 0 6.2 0h80.6c1.644 0 3.221.6 4.384 1.67C92.347 2.737 93 4.187 93 5.7v45.6c0 1.512-.653 2.962-1.816 4.03C90.021 56.4 88.444 57 86.8 57zM46.087 35.06l-.928 5.343a19.04 19.04 0 0 0 7.5 1.262h-.029c3.012.161 5.994-.62 8.46-2.216l-.043.026a7.526 7.526 0 0 0 2.39-2.595 6.852 6.852 0 0 0 .86-3.307v-.036.003c0-2.613-1.902-4.784-5.65-6.46a20.21 20.21 0 0 1-2.925-1.596l.06.038a1.867 1.867 0 0 1-.627-.605 1.688 1.688 0 0 1-.26-.801v-.005c.02-.294.12-.579.291-.828.171-.25.408-.455.689-.597l.01-.005a5.409 5.409 0 0 1 2.863-.61h-.016.207l.199-.003c1.663 0 3.242.33 4.665.922l-.072-.026.604.297.928-5.156a17.375 17.375 0 0 0-5.883-1.003h-.126.008c-2.911-.117-5.781.662-8.156 2.214l.041-.026a7.154 7.154 0 0 0-2.348 2.475 6.493 6.493 0 0 0-.847 3.191v.012c-.026 2.513 1.943 4.684 5.854 6.46 1.033.416 1.924.924 2.723 1.535l-.019-.015c.23.178.418.399.55.648.132.248.206.52.218.796v.01c0 .758-.491 1.408-1.199 1.7l-.013.005a6.157 6.157 0 0 1-2.671.594h-.119.005-.194c-2.213 0-4.311-.451-6.192-1.259l.09.036-.885-.409-.013-.01zm26.156 2.71h8.564c.137.543.407 1.73.808 3.562h6.218l-5.41-23.823h-5.166a3.69 3.69 0 0 0-2.11.457 3.252 3.252 0 0 0-1.395 1.526l-.008.021-9.92 21.82h7.026l1.411-3.561-.018-.002zM38.468 17.508l-4.2 23.824h6.701l4.198-23.823h-6.699zM12.715 22.37l5.451 18.924h7.063L35.756 17.51h-7.094l-6.546 16.254-.687-3.304-2.336-10.946a2.462 2.462 0 0 0-1.08-1.567 2.875 2.875 0 0 0-1.96-.438l.015-.002H5.252l-.08.482c8.329 1.945 13.8 6.142 16.264 12.469a13.59 13.59 0 0 0-3.425-4.807l-.003-.002a15.891 15.891 0 0 0-5.184-3.25l-.104-.035-.005.007zm67.004 10.5h-5.58c.377-.915 1.266-3.132 2.666-6.65l.119-.335.413-.964a9.83 9.83 0 0 0 .362-.964l.486 2.04 1.531 6.864.003.009z" fill="#00008B"/></g><defs><clipPath id="a"><path fill="#fff" d="M0 0h93v57H0z"/></clipPath></defs></svg>