<svg width="32" height="32" fill="none" xmlns="http://www.w3.org/2000/svg"><path d="M30.227.112H1.773C1.304.116.855.298.523.62.191.942.003 1.378 0 1.833v27.608c.003.456.191.891.523 1.213.332.322.781.505 1.25.508h15.32V19.156h-4.16V14.46h4.16v-3.454c0-4.011 2.52-6.197 6.227-6.197 1.24 0 2.48 0 3.72.18v4.18h-2.547c-2.013 0-2.4.93-2.4 2.29v2.988h4.8l-.626 4.696h-4.174v12.019h8.134c.469-.003.918-.186 1.25-.508.332-.322.52-.757.523-1.213V1.833A1.708 1.708 0 0 0 31.477.62a1.814 1.814 0 0 0-1.25-.508z" fill="#395498"/></svg>