<svg width="40" height="29" fill="none" xmlns="http://www.w3.org/2000/svg"><path fill-rule="evenodd" clip-rule="evenodd" d="M40 4.05c-1.5.573-3.089.948-4.714 1.114 1.706-.877 2.99-2.269 3.608-3.916a18.101 18.101 0 0 1-5.21 1.718 8.373 8.373 0 0 0-2.733-1.657 9.275 9.275 0 0 0-3.257-.58c-4.532 0-8.206 3.17-8.206 7.082 0 .554.072 1.094.212 1.612a26.073 26.073 0 0 1-9.346-2.136c-2.913-1.274-5.49-3.065-7.568-5.26a6.326 6.326 0 0 0-1.112 3.558 6.371 6.371 0 0 0 .975 3.351c.637 1.03 1.558 1.903 2.677 2.542a9.202 9.202 0 0 1-3.718-.886v.088c0 3.43 2.828 6.293 6.58 6.943a9.526 9.526 0 0 1-3.704.123c1.044 2.811 4.074 4.859 7.666 4.916-2.92 1.973-6.505 3.04-10.192 3.033-.654 0-1.308-.035-1.958-.102 3.765 2.084 8.127 3.187 12.58 3.181 15.094 0 23.348-10.788 23.348-20.143 0-.307-.008-.613-.024-.917A15.581 15.581 0 0 0 40 4.051V4.05z" fill="#1C96E9"/></svg>